<?xml version="1.0" standalone="no"?>
<!DOCTYPE svg PUBLIC "-//W3C//DTD SVG 20010904//EN"
 "http://www.w3.org/TR/2001/REC-SVG-20010904/DTD/svg10.dtd">
<svg version="1.0" xmlns="http://www.w3.org/2000/svg"
 width="500.000000pt" height="500.000000pt" viewBox="0 0 500.000000 500.000000"
 preserveAspectRatio="xMidYMid meet">

<g transform="translate(0.000000,500.000000) scale(0.100000,-0.100000)"
fill="#000000" stroke="none">
<path d="M2295 4340 c-181 -27 -305 -94 -355 -190 -10 -19 -34 -123 -54 -230
-63 -336 -48 -296 -119 -331 -229 -115 -444 -307 -596 -533 -52 -76 -140 -247
-160 -308 l-13 -38 -238 0 c-135 0 -261 -5 -290 -11 -68 -14 -128 -62 -162
-128 l-29 -55 3 -520 c3 -580 -1 -546 74 -619 66 -64 87 -67 465 -67 l338 0
70 -93 c238 -315 600 -534 993 -601 441 -76 897 42 1249 322 99 78 217 199
286 295 l57 77 331 0 c325 0 331 1 381 24 56 26 135 108 165 171 17 37 19 71
19 505 l0 465 -24 42 c-41 71 -96 130 -150 160 l-51 28 -254 3 -253 4 -16 41
c-122 314 -361 601 -642 772 -33 20 -60 40 -60 44 0 4 12 70 26 147 14 76 24
158 21 180 -12 115 -131 240 -310 328 -128 62 -179 79 -331 106 -112 20 -273
25 -371 10z m345 -156 c285 -54 500 -208 499 -359 0 -22 -12 -106 -28 -187
l-28 -147 71 -37 c179 -93 474 -335 491 -401 3 -14 23 -51 44 -82 58 -86 95
-159 145 -283 l45 -113 288 -5 c158 -3 296 -9 306 -14 9 -4 35 -31 57 -58 l40
-51 0 -444 0 -443 -53 -55 -53 -55 -362 0 -362 0 -33 -47 c-173 -250 -344
-402 -582 -520 -211 -104 -399 -147 -640 -147 -298 1 -546 75 -797 240 -128
84 -309 262 -393 386 l-59 88 -367 0 c-243 0 -376 4 -392 11 -57 26 -57 23
-57 552 0 473 0 485 20 510 12 15 38 31 58 37 21 6 156 10 317 10 l280 0 29
82 c28 78 82 191 146 307 58 103 214 267 360 377 47 36 140 92 208 127 86 43
124 68 127 82 3 11 23 119 45 240 23 121 46 232 52 247 14 37 80 96 134 119
107 48 294 62 444 33z"/>
<path d="M2415 4082 c-70 -4 -85 -11 -102 -48 -15 -30 -15 -36 -3 -44 11 -7
19 -2 29 18 18 37 42 62 56 62 8 0 -1 -25 -21 -64 -19 -36 -30 -67 -25 -70 19
-12 40 7 57 50 16 42 61 91 72 79 3 -3 -5 -23 -17 -45 l-22 -40 30 0 c17 0 31
4 31 9 0 4 9 20 21 35 17 21 24 24 35 15 12 -9 11 -15 -5 -38 -28 -40 -34 -78
-15 -89 12 -7 15 -17 9 -41 -6 -27 -10 -30 -31 -25 -29 7 -31 -5 -4 -39 28
-35 27 -61 -2 -54 -13 3 -54 9 -91 12 -46 5 -74 13 -85 26 -15 15 -24 16 -65
7 -50 -10 -77 -6 -77 12 0 6 27 10 65 10 51 0 65 3 65 15 0 8 9 15 20 15 11 0
24 8 27 18 4 9 12 21 20 25 7 4 13 17 13 27 0 10 5 22 10 25 6 3 10 10 10 15
0 5 -11 -2 -25 -15 -13 -14 -33 -25 -44 -25 -11 0 -43 -9 -71 -20 -28 -11 -55
-20 -59 -20 -5 0 -12 18 -16 39 -8 50 7 81 37 76 17 -3 29 5 45 31 28 44 15
43 -44 -2 -56 -42 -61 -50 -78 -115 -11 -40 -11 -50 1 -60 20 -17 17 -39 -6
-39 -25 0 -28 -45 -4 -58 21 -12 10 -32 -17 -32 -23 0 -27 -45 -4 -54 22 -8
18 -36 -5 -36 -28 0 -38 -30 -15 -46 19 -14 14 -44 -9 -44 -21 0 -30 -32 -11
-42 23 -13 19 -48 -5 -48 -24 0 -27 -28 -4 -45 15 -10 15 -14 1 -41 -8 -17
-13 -42 -10 -57 5 -23 1 -29 -16 -34 -21 -5 -31 -43 -11 -43 18 0 10 -38 -8
-43 -20 -5 -32 -44 -32 -107 0 -29 9 -50 39 -88 47 -59 78 -82 166 -124 l67
-31 -6 -58 c-4 -32 -13 -71 -21 -86 -27 -51 -16 -120 24 -150 13 -10 -79 -12
-437 -13 l-453 0 6 23 c11 36 67 160 81 181 8 12 10 25 4 36 -13 24 11 65 37
65 14 0 33 16 54 45 50 69 187 200 262 250 66 44 67 46 65 85 -4 52 -16 51
-109 -11 -93 -62 -240 -207 -308 -304 -86 -122 -171 -307 -196 -427 l-7 -33
1222 0 1221 0 -6 23 c-44 143 -68 207 -85 222 -31 28 -77 106 -91 155 -34 117
-243 324 -437 430 -47 26 -56 22 -65 -27 -5 -23 -2 -33 10 -37 31 -12 152 -98
217 -154 145 -126 251 -278 325 -469 l21 -53 -506 0 c-478 0 -506 1 -499 18 4
9 13 37 20 62 7 25 28 82 47 127 31 77 36 84 70 93 70 20 139 135 109 183 -12
18 -10 22 10 38 21 16 22 21 12 38 -15 23 -7 51 13 51 17 0 18 32 2 49 -11 10
-8 16 12 31 22 17 23 20 10 44 -12 24 -12 28 8 42 25 17 29 42 8 50 -17 7 -10
34 9 34 20 0 27 31 10 50 -20 22 -19 27 5 33 21 5 28 41 10 52 -15 9 -12 35 4
35 20 0 27 37 10 51 -13 10 -12 15 6 31 27 25 28 125 1 184 -67 148 -339 271
-566 256z m285 -98 c14 -1 28 -3 31 -3 3 -1 6 -14 6 -29 0 -16 7 -43 16 -62
10 -18 17 -43 17 -55 0 -12 12 -32 26 -46 19 -18 24 -30 19 -49 -7 -30 -24
-111 -32 -160 -3 -19 -9 -39 -13 -45 -4 -5 -11 -46 -15 -90 -3 -44 -13 -111
-22 -150 -8 -38 -15 -79 -14 -90 0 -10 -5 -25 -11 -32 -6 -8 -11 -30 -10 -49
1 -28 -6 -43 -34 -71 l-36 -36 22 -12 c19 -10 20 -13 6 -18 -10 -4 -15 -11
-11 -16 3 -5 1 -12 -4 -16 -6 -3 -8 -12 -5 -19 4 -10 -2 -12 -22 -8 -19 3 -31
-1 -41 -14 -18 -25 -74 -22 -113 6 -30 21 -30 22 -30 112 0 68 3 89 13 85 47
-17 207 -49 221 -44 11 4 16 15 14 29 -3 20 -17 26 -120 52 -110 28 -137 43
-108 61 6 4 61 -8 122 -25 113 -32 127 -31 128 7 0 18 -17 25 -130 54 -76 19
-106 31 -108 43 -5 23 29 21 128 -9 106 -32 120 -32 120 0 0 26 -13 32 -172
71 -43 10 -68 22 -68 30 0 21 46 17 146 -11 94 -28 114 -27 114 4 0 20 -18 27
-185 73 -32 9 -51 20 -53 31 -5 24 14 22 135 -14 107 -32 129 -31 121 7 -2 13
-29 25 -108 47 -58 15 -111 30 -117 32 -7 3 -13 11 -13 20 0 22 32 19 140 -15
81 -25 97 -27 109 -16 26 26 4 43 -96 70 -54 15 -106 30 -115 32 -10 3 -18 14
-18 25 0 25 15 22 147 -21 79 -26 89 -28 100 -14 21 28 3 43 -85 69 -48 14
-98 30 -112 34 -30 9 -40 41 -13 41 11 0 59 -13 108 -30 110 -37 125 -38 125
-5 0 21 -8 27 -77 48 -43 14 -93 28 -110 32 -18 3 -35 11 -38 16 -10 15 27
123 48 142 12 11 27 15 36 11 9 -4 27 -8 41 -10z m-387 -243 c-4 -16 4 -19 59
-25 125 -14 138 -17 138 -37 0 -22 -6 -22 -110 -9 -48 7 -79 16 -87 26 -10 13
-23 15 -72 9 -52 -6 -61 -5 -61 9 0 13 12 16 60 16 47 0 60 3 60 15 0 8 4 15
9 15 5 0 7 -8 4 -19z m-18 -90 c-5 -17 0 -21 27 -25 144 -21 178 -29 178 -41
0 -8 -3 -16 -7 -18 -17 -10 -197 25 -208 40 -9 12 -22 14 -57 9 -34 -5 -48 -3
-58 9 -11 13 -6 14 47 9 55 -6 60 -5 66 15 3 11 8 21 12 21 3 0 4 -9 0 -19z
m41 -124 c10 -3 45 -8 76 -12 60 -7 72 -13 59 -33 -6 -9 -26 -9 -89 0 -75 10
-84 10 -103 -8 -18 -16 -19 -19 -4 -30 8 -6 48 -15 88 -19 79 -7 104 -16 92
-35 -8 -13 -126 -6 -182 11 -29 9 -32 14 -26 37 3 15 13 37 21 50 9 14 13 35
9 58 l-6 36 23 -25 c13 -14 31 -27 42 -30z m-138 16 c-16 -38 -16 -37 -33 -23
-14 11 -12 15 12 31 15 10 29 18 30 18 2 1 -3 -11 -9 -26z m-7 -102 c-20 -15
-28 -17 -43 -7 -17 10 -16 11 12 14 20 2 30 9 30 20 0 13 2 14 13 3 10 -10 7
-16 -12 -30z m88 -101 c40 0 141 -17 149 -25 2 -2 2 -10 -1 -18 -4 -12 -19
-12 -99 -1 -51 7 -96 13 -100 14 -5 0 -8 7 -8 15 0 11 -11 15 -37 15 -21 0
-45 5 -53 11 -11 7 0 9 40 7 52 -3 55 -2 60 22 4 22 5 22 8 -7 3 -31 6 -33 41
-33z m-56 -63 c-4 -22 -1 -24 88 -36 51 -6 95 -13 96 -15 2 -2 1 -11 -3 -20
-5 -14 -16 -16 -68 -10 -91 9 -136 22 -136 40 0 12 -9 15 -42 12 -26 -2 -43 1
-45 9 -3 9 9 11 46 6 47 -5 51 -4 51 16 0 11 4 21 9 21 4 0 6 -10 4 -23z m-18
-95 l-6 -28 91 -13 c49 -7 92 -16 95 -20 2 -5 -2 -17 -10 -27 -13 -17 -14 -17
-15 -2 0 24 -16 31 -40 18 -16 -8 -19 -17 -14 -33 6 -19 5 -20 -9 -9 -20 17
-37 7 -37 -21 0 -42 -17 -52 -22 -13 -3 26 0 40 11 47 14 8 14 11 -3 22 -11 7
-28 20 -38 30 -10 9 -25 17 -33 17 -8 0 -15 4 -15 10 0 5 6 7 14 4 8 -3 16 4
20 20 9 35 19 33 11 -2z m-72 -19 c-7 -2 -19 -2 -25 0 -7 3 -2 5 12 5 14 0 19
-2 13 -5z m-36 -105 c-3 -8 -6 -5 -6 6 -1 11 2 17 5 13 3 -3 4 -12 1 -19z
m250 -50 c-3 -7 -5 -2 -5 12 0 14 2 19 5 13 2 -7 2 -19 0 -25z m-237 -34 c0
-8 -4 -12 -10 -9 -5 3 -10 13 -10 21 0 8 5 12 10 9 6 -3 10 -13 10 -21z m258
-59 c4 -6 -1 -2 -10 8 -10 11 -18 27 -17 36 0 10 4 7 10 -8 5 -14 13 -30 17
-36z m-180 24 c7 -12 11 -23 9 -25 -6 -6 -37 25 -37 37 0 16 15 10 28 -12z
m77 -7 c9 -24 -7 -37 -22 -17 -17 24 -17 32 2 32 8 0 17 -7 20 -15z m153 -144
c14 -12 17 -32 3 -23 -5 3 -13 1 -16 -5 -4 -6 -1 -9 6 -8 6 2 14 -3 16 -10 4
-11 1 -12 -17 -2 -12 6 -19 18 -16 25 3 8 0 17 -6 21 -6 4 -8 3 -4 -4 11 -19
-11 -22 -26 -4 -32 36 -30 41 9 30 21 -5 44 -15 51 -20z m-138 -188 c0 -5 -7
-10 -15 -10 -8 0 -15 5 -15 10 0 6 7 10 15 10 8 0 15 -4 15 -10z m30 -26 c0
-16 -2 -16 -24 -8 -12 5 -13 9 -3 19 14 15 27 10 27 -11z"/>
<path d="M1630 2690 l0 -90 45 0 c39 0 45 3 45 21 0 14 -5 19 -13 16 -20 -8
-41 9 -34 27 4 9 16 16 27 16 11 0 20 7 20 15 0 9 -9 15 -25 15 -18 0 -25 5
-25 20 0 15 7 20 25 20 16 0 25 6 25 15 0 11 -12 15 -45 15 l-45 0 0 -90z"/>
<path d="M1762 2768 c-13 -13 -16 -57 -4 -74 4 -7 16 -13 27 -15 12 -3 21 -14
23 -27 3 -19 -1 -22 -27 -22 -23 0 -29 -4 -25 -15 7 -18 65 -20 82 -3 7 7 12
29 12 49 0 32 -4 38 -30 48 -16 5 -30 17 -30 25 0 11 10 16 30 16 20 0 30 5
30 15 0 19 -70 21 -88 3z"/>
<path d="M1880 2765 c0 -8 7 -15 15 -15 12 0 15 -15 15 -75 0 -68 2 -75 20
-75 18 0 20 7 20 75 0 60 3 75 15 75 8 0 15 7 15 15 0 11 -12 15 -50 15 -38 0
-50 -4 -50 -15z"/>
<path d="M2010 2690 l0 -90 39 0 c57 0 71 19 71 94 0 35 -5 67 -12 74 -7 7
-31 12 -55 12 l-43 0 0 -90z m68 2 c2 -42 0 -52 -12 -52 -13 0 -16 12 -16 56
0 73 24 70 28 -4z"/>
<path d="M2840 2765 c0 -9 9 -15 24 -15 39 0 42 -20 7 -49 -25 -21 -31 -33
-31 -63 l0 -38 50 0 c44 0 50 3 50 21 0 17 -5 19 -30 15 -41 -6 -41 23 0 46
22 13 30 24 30 46 0 38 -17 52 -62 52 -27 0 -38 -4 -38 -15z"/>
<path d="M2982 2768 c-15 -15 -16 -122 -2 -149 8 -13 21 -19 46 -19 28 0 36 5
44 26 13 33 13 110 0 135 -12 22 -68 27 -88 7z m53 -76 c0 -70 -19 -67 -23 4
-2 43 0 55 10 52 8 -3 13 -23 13 -56z"/>
<path d="M3110 2766 c0 -11 10 -16 30 -16 40 0 40 -29 0 -52 -26 -15 -30 -23
-30 -58 l0 -40 50 0 c44 0 50 3 50 21 0 16 -5 20 -27 17 -38 -4 -39 16 -3 42
26 19 31 28 28 59 -3 35 -4 36 -50 39 -38 2 -48 0 -48 -12z"/>
<path d="M3256 2733 c-24 -70 -21 -93 10 -93 17 0 28 -6 31 -20 8 -30 39 -25
46 8 12 60 -21 114 -38 62 -6 -20 -25 -28 -25 -11 0 5 7 28 15 51 19 53 19 50
-4 50 -14 0 -24 -13 -35 -47z"/>
<path d="M1871 2259 c-57 -11 -116 -50 -137 -91 -24 -46 -23 -121 2 -156 11
-15 58 -47 105 -72 62 -33 84 -50 84 -65 0 -34 -68 -32 -138 3 -32 16 -59 26
-61 23 -3 -3 -9 -35 -16 -70 -14 -76 -14 -75 82 -91 169 -29 288 40 288 166 0
69 -27 100 -130 152 -56 27 -75 42 -75 57 0 30 62 32 115 5 49 -25 57 -20 71
36 15 69 12 81 -23 92 -51 16 -119 20 -167 11z"/>
<path d="M2295 2248 c-6 -15 -117 -380 -139 -455 l-15 -53 80 0 79 0 0 29 c0
57 6 61 86 61 70 0 74 -1 74 -22 1 -64 6 -68 92 -68 75 0 79 1 73 20 -10 31
-135 490 -135 496 0 2 -43 4 -95 4 -67 0 -97 -4 -100 -12z m114 -200 c7 -35
15 -73 18 -85 5 -21 2 -23 -41 -23 -25 0 -46 3 -46 7 0 21 43 163 50 163 4 0
13 -28 19 -62z"/>
<path d="M2740 2244 c0 -21 -38 -419 -45 -466 l-5 -38 64 0 c63 0 64 0 70 31
3 17 6 61 7 98 0 36 4 89 8 116 7 47 8 48 18 25 6 -14 23 -69 38 -123 l28 -98
60 3 61 3 40 117 c23 65 44 118 47 118 7 0 19 -153 19 -237 l0 -53 70 0 70 0
-5 38 c-3 20 -12 132 -20 247 -9 116 -18 216 -20 223 -4 9 -27 12 -91 10 l-87
-3 -32 -123 c-31 -116 -40 -141 -49 -131 -2 2 -17 60 -33 129 l-29 125 -92 3
c-80 2 -92 1 -92 -14z"/>
<path d="M1936 1523 c-2 -10 -7 -56 -11 -103 -3 -47 -8 -97 -11 -112 -5 -26
-3 -28 30 -28 l36 0 0 64 c0 36 4 67 8 70 5 3 15 -19 22 -49 13 -53 15 -55 46
-55 31 0 34 3 50 55 10 30 21 52 26 49 4 -3 8 -34 8 -70 l0 -64 36 0 c35 0 36
1 31 33 -3 17 -9 76 -13 130 l-6 97 -43 0 -44 0 -15 -54 c-9 -30 -16 -59 -16
-66 0 -31 -19 6 -30 60 l-13 60 -43 0 c-32 0 -44 -4 -48 -17z"/>
<path d="M2262 1429 c3 -102 5 -112 27 -130 16 -13 39 -19 78 -19 47 0 59 4
84 29 28 29 29 32 29 130 l0 101 -41 0 -42 0 7 -86 c7 -94 0 -114 -39 -114
-32 0 -37 21 -29 117 l7 83 -43 0 -42 0 4 -111z"/>
<path d="M2559 1511 c-49 -49 -38 -91 32 -127 27 -13 49 -29 49 -34 0 -19 -27
-21 -65 -6 -21 9 -39 16 -40 16 -2 0 -5 -16 -7 -35 -5 -41 3 -45 76 -45 117 0
153 97 55 151 -53 30 -64 54 -23 47 16 -3 36 -8 45 -12 13 -5 18 0 23 25 8 41
-3 49 -67 49 -40 0 -53 -5 -78 -29z"/>
<path d="M2770 1410 l0 -130 38 0 37 0 1 130 0 130 -38 0 -38 0 0 -130z"/>
<path d="M2954 1521 c-41 -25 -58 -69 -52 -133 4 -42 11 -57 37 -80 26 -23 40
-28 86 -28 37 0 55 4 55 13 0 6 3 22 6 34 5 20 3 21 -34 16 -33 -4 -42 -2 -56
18 -19 28 -21 79 -2 104 10 14 21 17 49 12 33 -5 38 -3 43 18 3 13 3 29 -1 34
-11 18 -97 13 -131 -8z"/>
</g>
</svg>
