<?xml version="1.0" standalone="no"?>
<!DOCTYPE svg PUBLIC "-//W3C//DTD SVG 20010904//EN"
 "http://www.w3.org/TR/2001/REC-SVG-20010904/DTD/svg10.dtd">
<svg version="1.0" xmlns="http://www.w3.org/2000/svg"
 width="500.000000pt" height="500.000000pt" viewBox="0 0 500.000000 500.000000"
 preserveAspectRatio="xMidYMid meet">

<g transform="translate(0.000000,500.000000) scale(0.100000,-0.100000)"
fill="#000000" stroke="none">
<path d="M0 2500 l0 -2500 2500 0 2500 0 0 2500 0 2500 -2500 0 -2500 0 0
-2500z m2686 1909 c314 -53 585 -213 675 -396 38 -75 39 -131 9 -283 l-21
-105 23 -17 c13 -9 68 -50 123 -91 123 -91 289 -263 375 -388 64 -93 180 -309
180 -335 0 -10 53 -13 258 -16 l257 -3 64 -35 c74 -40 140 -119 160 -191 9
-33 11 -182 9 -569 l-3 -525 -23 -43 c-36 -67 -98 -129 -161 -159 l-56 -28
-341 -3 -341 -3 -62 -78 c-85 -109 -248 -264 -361 -343 -115 -81 -279 -164
-419 -213 -297 -102 -645 -114 -969 -34 -332 82 -672 305 -892 584 l-63 80
-331 5 -331 5 -57 27 c-66 31 -128 91 -160 156 l-23 47 -3 539 -3 538 25 53
c33 72 87 129 154 162 56 28 59 28 299 33 l242 5 56 114 c103 210 226 376 385
518 92 83 277 214 351 248 l36 17 43 237 c23 130 50 254 60 276 21 50 101 125
168 159 159 80 404 101 668 55z"/>
<path d="M2305 4343 c-178 -25 -315 -97 -365 -193 -10 -19 -34 -125 -55 -235
-60 -327 -46 -290 -124 -330 -216 -108 -436 -304 -580 -515 -60 -87 -149 -255
-170 -322 l-13 -38 -238 0 c-135 0 -261 -5 -290 -11 -68 -14 -128 -62 -162
-128 l-28 -53 0 -503 c0 -565 -1 -558 72 -632 69 -71 85 -73 469 -73 l338 0
69 -92 c219 -291 559 -509 921 -589 397 -87 800 -18 1166 199 146 86 346 271
450 415 l49 67 330 0 c326 0 332 1 382 24 56 26 135 108 165 171 17 37 19 71
19 501 0 458 0 461 -22 505 -35 68 -96 135 -152 166 l-51 28 -254 3 -253 4
-16 41 c-118 303 -334 569 -609 750 -51 33 -93 65 -93 70 0 6 12 71 26 146 14
75 24 154 21 177 -7 68 -47 132 -126 206 -59 55 -99 81 -186 123 -127 62 -179
78 -329 105 -102 19 -275 25 -361 13z m335 -159 c285 -54 500 -208 499 -359 0
-22 -12 -106 -28 -187 l-28 -147 71 -37 c318 -166 559 -442 692 -794 l32 -85
289 -5 c158 -3 296 -9 306 -14 9 -4 35 -31 57 -58 l40 -51 0 -444 0 -443 -53
-55 -53 -55 -362 0 -362 0 -33 -47 c-82 -118 -128 -174 -207 -254 -201 -200
-468 -338 -765 -396 -133 -25 -387 -23 -521 6 -302 63 -531 187 -744 400 -66
66 -141 154 -175 203 l-59 88 -367 0 c-243 0 -376 4 -392 11 -57 26 -57 23
-57 552 0 473 0 485 20 510 12 15 38 31 58 37 21 6 156 10 317 10 l280 0 23
68 c127 365 383 657 729 830 80 39 115 62 118 77 3 11 23 119 45 240 22 121
45 232 51 247 15 37 81 96 135 119 107 48 294 62 444 33z"/>
<path d="M2398 4080 c-31 -3 -61 -10 -67 -15 -5 -6 -21 -36 -35 -67 -24 -56
-24 -58 -5 -58 14 0 26 14 40 48 23 52 46 82 64 82 8 0 -1 -25 -21 -64 -19
-36 -30 -67 -25 -70 19 -12 40 7 57 50 16 41 61 91 72 80 2 -3 -7 -29 -22 -57
-28 -56 -31 -74 -17 -83 19 -12 39 6 55 49 20 50 39 70 62 61 14 -5 13 -9 -4
-33 -29 -42 -35 -80 -16 -91 23 -13 10 -75 -14 -68 -10 2 -47 10 -84 16 -38 7
-68 15 -68 18 0 2 7 10 17 17 9 7 13 17 9 24 -8 13 -37 8 -119 -21 -32 -11
-60 -18 -63 -15 -3 3 -8 23 -11 44 -4 29 0 44 16 63 l21 25 -11 -32 c-16 -48
-5 -64 17 -24 11 18 29 49 41 67 12 19 18 34 13 34 -16 0 -104 -71 -117 -94
-19 -33 -27 -106 -14 -119 17 -17 13 -37 -9 -37 -25 0 -28 -45 -4 -58 21 -12
10 -32 -17 -32 -23 0 -27 -45 -4 -54 22 -8 18 -36 -5 -36 -28 0 -38 -30 -15
-46 19 -14 14 -44 -9 -44 -21 0 -30 -32 -11 -42 23 -13 19 -48 -5 -48 -24 0
-28 -35 -5 -44 21 -8 19 -37 -4 -43 -25 -6 -35 -32 -16 -39 23 -9 19 -54 -5
-54 -13 0 -20 -7 -20 -20 0 -11 5 -20 10 -20 18 0 10 -38 -8 -43 -20 -5 -32
-44 -32 -107 0 -29 9 -50 39 -88 47 -59 78 -82 167 -124 l67 -31 -6 -57 c-4
-31 -13 -70 -22 -86 -27 -52 -16 -120 24 -151 13 -10 -79 -12 -437 -13 l-453
0 6 23 c63 208 267 472 460 594 38 24 43 32 52 80 12 65 14 65 -107 -15 -165
-111 -330 -300 -423 -487 -35 -71 -79 -193 -92 -252 l-7 -33 1221 0 c672 0
1221 2 1221 4 0 3 -15 52 -34 109 -103 314 -299 555 -588 720 l-47 28 -7 -28
c-3 -16 -8 -35 -10 -44 -3 -10 11 -23 38 -39 214 -119 410 -341 503 -573 l33
-82 -501 -3 c-275 -1 -502 -1 -504 1 -4 4 33 112 73 215 27 66 32 73 66 82 70
20 139 134 109 183 -12 18 -10 22 10 38 21 16 22 21 12 38 -15 23 -7 51 13 51
17 0 18 32 2 49 -11 10 -8 16 12 31 22 17 23 20 10 44 -12 24 -12 28 8 42 25
17 29 42 8 50 -17 7 -10 34 9 34 20 0 27 31 10 50 -20 22 -19 27 5 33 21 5 28
41 10 52 -15 9 -12 35 4 35 21 0 28 31 12 49 -14 15 -13 19 4 34 27 23 27 125
1 183 -70 154 -349 276 -583 254z m302 -96 c14 -1 28 -3 31 -3 3 -1 6 -14 6
-29 0 -16 7 -43 16 -62 10 -18 17 -42 17 -53 0 -12 12 -33 26 -48 25 -26 26
-29 14 -81 -6 -29 -16 -67 -21 -84 -5 -17 -9 -42 -9 -57 0 -14 -4 -28 -9 -31
-5 -3 -12 -43 -16 -88 -4 -46 -13 -114 -22 -153 -8 -38 -15 -79 -14 -90 0 -10
-5 -25 -11 -32 -6 -8 -11 -30 -10 -49 1 -28 -6 -43 -34 -71 l-36 -36 23 -13
c13 -7 19 -13 13 -14 -11 0 -27 -35 -25 -55 0 -6 -12 -10 -27 -10 -15 0 -28
-4 -30 -10 -4 -16 -50 -24 -84 -15 -60 18 -68 34 -68 133 0 67 3 88 13 84 47
-17 207 -49 221 -44 11 4 16 15 14 29 -3 20 -17 26 -120 52 -78 20 -118 34
-118 43 0 25 25 24 115 -3 133 -39 132 -39 140 -14 4 12 2 27 -3 32 -6 6 -59
22 -119 37 -78 20 -109 32 -111 44 -5 24 28 22 129 -8 107 -31 119 -31 119 -1
0 29 -20 37 -212 80 -16 4 -28 13 -28 21 0 22 45 19 146 -10 94 -28 114 -27
114 4 0 20 -18 27 -185 73 -32 9 -51 20 -53 31 -5 24 13 22 135 -14 107 -31
128 -30 121 7 -2 13 -29 25 -108 47 -58 15 -111 30 -117 32 -7 3 -13 11 -13
20 0 22 32 19 140 -15 81 -25 97 -27 109 -16 26 26 4 43 -96 70 -54 15 -106
30 -115 32 -18 5 -26 44 -9 44 9 0 183 -53 213 -65 13 -5 20 -1 27 16 5 13 5
28 1 33 -5 4 -57 23 -117 40 -77 23 -109 37 -111 49 -5 24 20 22 123 -13 110
-37 125 -38 125 -5 0 22 -9 27 -97 55 -54 16 -103 30 -110 30 -21 0 -23 16 -6
76 17 64 46 99 72 88 9 -4 27 -8 41 -10z m-292 -177 c102 -9 122 -15 122 -39
0 -16 -5 -19 -22 -15 -13 3 -54 9 -92 13 -45 4 -75 13 -86 24 -15 15 -25 17
-64 8 -49 -10 -76 -6 -76 12 0 6 27 10 65 10 55 0 65 3 66 18 1 12 3 11 6 -4
4 -19 13 -22 81 -27z m-95 -65 c-4 -17 7 -20 96 -31 88 -12 101 -16 101 -32 0
-22 -5 -22 -110 -9 -48 7 -79 16 -87 26 -10 13 -23 15 -72 9 -52 -6 -61 -5
-61 9 0 13 12 16 60 16 47 0 60 3 60 15 0 8 4 15 9 15 5 0 7 -8 4 -18z m-18
-92 c-7 -22 2 -25 100 -35 81 -8 105 -15 105 -30 0 -8 -3 -16 -7 -18 -16 -10
-197 25 -208 40 -8 10 -25 13 -59 11 -31 -2 -50 1 -53 9 -3 8 11 10 50 6 50
-5 55 -4 62 16 3 11 9 21 11 21 3 0 3 -9 -1 -20z m41 -123 c10 -3 45 -8 76
-12 60 -7 72 -13 59 -33 -6 -9 -26 -9 -90 0 -78 11 -83 10 -103 -10 l-21 -21
24 -10 c13 -5 53 -13 89 -16 72 -7 96 -17 85 -35 -8 -13 -126 -6 -182 11 -29
9 -32 14 -26 37 3 15 13 37 21 50 9 14 13 35 9 58 l-6 36 23 -25 c13 -14 31
-27 42 -30z m-138 16 c-16 -38 -16 -37 -33 -23 -14 11 -12 15 12 31 15 10 29
18 30 18 2 1 -3 -11 -9 -26z m12 -84 c0 -5 -8 -13 -17 -16 -10 -4 -20 -10 -23
-14 -3 -4 -14 -1 -24 7 -19 13 -18 14 12 14 22 0 32 5 32 16 0 8 5 12 10 9 6
-3 10 -11 10 -16z m69 -119 c40 0 141 -17 149 -25 2 -2 2 -10 -1 -18 -4 -12
-19 -12 -99 -1 -51 7 -96 13 -100 14 -5 0 -8 7 -8 15 0 11 -11 15 -37 15 -21
0 -45 5 -53 11 -11 7 0 8 39 5 48 -5 54 -4 59 17 6 21 7 20 10 -5 3 -25 7 -28
41 -28z m-54 -63 c-6 -22 -3 -24 87 -36 51 -6 94 -13 95 -15 2 -2 0 -11 -3
-20 -6 -15 -15 -17 -68 -11 -91 10 -136 23 -136 41 0 12 -9 15 -42 12 -26 -2
-43 1 -45 9 -3 9 9 11 46 6 47 -5 51 -4 51 16 0 11 5 21 10 21 6 0 8 -10 5
-23z m-18 -95 l-6 -28 90 -13 c49 -7 91 -16 94 -20 2 -5 -2 -17 -10 -27 -13
-17 -14 -17 -15 -2 0 24 -16 31 -40 18 -16 -8 -19 -17 -14 -33 5 -18 4 -20 -7
-9 -24 22 -39 14 -39 -22 0 -47 -17 -55 -22 -10 -3 24 1 38 11 45 14 8 14 11
-4 24 -11 9 -28 22 -38 30 -9 8 -24 15 -32 15 -7 0 -17 5 -21 11 -4 7 0 9 14
5 15 -5 21 -1 26 19 9 34 20 32 13 -3z m-81 -20 c-10 -2 -22 0 -28 6 -6 6 0 7
19 4 21 -5 23 -7 9 -10z m-29 -104 c-3 -8 -6 -5 -6 6 -1 11 2 17 5 13 3 -3 4
-12 1 -19z m250 -50 c-3 -7 -5 -2 -5 12 0 14 2 19 5 13 2 -7 2 -19 0 -25z
m-237 -34 c0 -8 -4 -12 -10 -9 -5 3 -10 13 -10 21 0 8 5 12 10 9 6 -3 10 -13
10 -21z m258 -59 c4 -6 -1 -2 -10 8 -10 11 -18 27 -17 36 0 10 4 7 10 -8 5
-14 13 -30 17 -36z m-178 24 c7 -11 10 -23 7 -25 -6 -6 -37 25 -37 37 0 17 19
9 30 -12z m75 -7 c9 -24 -7 -37 -22 -17 -17 24 -17 32 2 32 8 0 17 -7 20 -15z
m157 -146 c9 -14 10 -56 1 -56 -12 0 -73 51 -83 69 -9 18 -7 18 33 8 23 -6 45
-15 49 -21z m-131 -186 c18 -10 27 -40 11 -40 -13 0 -52 30 -52 41 0 12 17 12
41 -1z"/>
<path d="M2401 3947 c-13 -21 -12 -21 5 -5 10 10 16 20 13 22 -3 3 -11 -5 -18
-17z"/>
<path d="M1855 3381 c-3 -5 -1 -12 5 -16 12 -7 30 2 30 16 0 12 -27 12 -35 0z"/>
<path d="M3090 3374 c0 -9 5 -14 12 -12 18 6 21 28 4 28 -9 0 -16 -7 -16 -16z"/>
<path d="M1780 3335 c0 -9 5 -15 11 -13 6 2 11 8 11 13 0 5 -5 11 -11 13 -6 2
-11 -4 -11 -13z"/>
<path d="M3165 3341 c-7 -12 12 -24 25 -16 11 7 4 25 -10 25 -5 0 -11 -4 -15
-9z"/>
<path d="M1700 3285 c0 -8 7 -15 15 -15 8 0 15 7 15 15 0 8 -7 15 -15 15 -8 0
-15 -7 -15 -15z"/>
<path d="M3247 3293 c-12 -11 -8 -23 8 -23 8 0 15 7 15 15 0 16 -12 20 -23 8z"/>
<path d="M1635 3240 c-4 -6 -3 -16 3 -22 6 -6 12 -6 17 2 4 6 3 16 -3 22 -6 6
-12 6 -17 -2z"/>
<path d="M3314 3239 c-10 -17 13 -36 27 -22 12 12 4 33 -11 33 -5 0 -12 -5
-16 -11z"/>
<path d="M1565 3180 c-4 -6 -3 -16 3 -22 6 -6 12 -6 17 2 4 6 3 16 -3 22 -6 6
-12 6 -17 -2z"/>
<path d="M3387 3184 c-13 -13 -7 -24 14 -24 11 0 19 5 17 12 -5 14 -22 21 -31
12z"/>
<path d="M1492 3108 c6 -18 28 -21 28 -4 0 9 -7 16 -16 16 -9 0 -14 -5 -12
-12z"/>
<path d="M3450 3105 c0 -8 7 -15 15 -15 8 0 15 7 15 15 0 8 -7 15 -15 15 -8 0
-15 -7 -15 -15z"/>
<path d="M3515 3050 c-4 -6 -3 -16 3 -22 6 -6 12 -6 17 2 4 6 3 16 -3 22 -6 6
-12 6 -17 -2z"/>
<path d="M1432 3038 c6 -18 28 -21 28 -4 0 9 -7 16 -16 16 -9 0 -14 -5 -12
-12z"/>
<path d="M1380 2964 c0 -9 5 -14 12 -12 18 6 21 28 4 28 -9 0 -16 -7 -16 -16z"/>
<path d="M3570 2964 c0 -9 5 -14 12 -12 18 6 21 28 4 28 -9 0 -16 -7 -16 -16z"/>
<path d="M1324 2899 c-10 -17 13 -36 27 -22 12 12 4 33 -11 33 -5 0 -12 -5
-16 -11z"/>
<path d="M3624 2896 c-8 -22 3 -33 18 -18 9 9 9 15 0 24 -9 9 -13 7 -18 -6z"/>
<path d="M1286 2823 c-11 -11 -6 -23 9 -23 8 0 15 4 15 9 0 13 -16 22 -24 14z"/>
<path d="M3667 2823 c-12 -11 -8 -23 8 -23 8 0 15 7 15 15 0 16 -12 20 -23 8z"/>
<path d="M1630 2690 l0 -90 45 0 c38 0 45 3 45 20 0 15 -7 20 -26 20 -33 0
-30 33 4 38 31 5 28 32 -4 32 -33 0 -30 33 4 38 12 2 22 10 22 18 0 10 -13 14
-45 14 l-45 0 0 -90z"/>
<path d="M1762 2768 c-13 -13 -16 -57 -4 -74 4 -7 16 -13 27 -15 12 -3 21 -14
23 -27 3 -19 -1 -22 -28 -22 -42 0 -35 -24 9 -28 43 -4 61 13 61 58 0 33 -4
39 -30 49 -16 5 -30 17 -30 25 0 11 10 16 30 16 20 0 30 5 30 15 0 19 -70 21
-88 3z"/>
<path d="M1880 2765 c0 -8 7 -15 15 -15 12 0 15 -15 15 -75 0 -68 2 -75 20
-75 18 0 20 7 20 75 0 60 3 75 15 75 8 0 15 7 15 15 0 11 -12 15 -50 15 -38 0
-50 -4 -50 -15z"/>
<path d="M2010 2690 l0 -90 39 0 c57 0 71 19 71 94 0 35 -5 67 -12 74 -7 7
-31 12 -55 12 l-43 0 0 -90z m68 2 c2 -42 0 -52 -12 -52 -13 0 -16 12 -16 56
0 73 24 70 28 -4z"/>
<path d="M2840 2765 c0 -10 10 -15 30 -15 19 0 30 -5 30 -14 0 -8 -13 -24 -30
-36 -25 -18 -30 -28 -30 -61 l0 -39 50 0 c43 0 50 3 50 20 0 16 -7 20 -30 20
-39 0 -39 20 0 42 22 13 30 24 30 46 0 38 -17 52 -62 52 -27 0 -38 -4 -38 -15z"/>
<path d="M2982 2768 c-15 -15 -16 -122 -2 -149 8 -13 21 -19 46 -19 40 0 54
24 54 90 0 65 -14 90 -53 90 -18 0 -38 -5 -45 -12z m53 -76 c0 -70 -19 -67
-23 4 -2 43 0 55 10 52 8 -3 13 -23 13 -56z"/>
<path d="M3110 2766 c0 -11 10 -16 30 -16 40 0 40 -29 0 -52 -26 -15 -30 -23
-30 -58 l0 -40 50 0 c43 0 50 3 50 20 0 16 -7 20 -30 20 -38 0 -38 13 1 40 25
19 30 28 27 59 -3 35 -4 36 -50 39 -38 2 -48 0 -48 -12z"/>
<path d="M3266 2768 c-3 -7 -9 -28 -15 -47 -19 -58 -15 -81 15 -81 17 0 28 -6
31 -20 3 -11 13 -20 23 -20 20 0 31 40 23 83 -6 31 -32 36 -40 7 -5 -20 -23
-28 -23 -11 0 5 7 28 15 51 8 23 15 44 15 46 0 10 -41 2 -44 -8z"/>
<path d="M1245 2740 c-4 -6 -3 -16 3 -22 6 -6 12 -6 17 2 4 6 3 16 -3 22 -6 6
-12 6 -17 -2z"/>
<path d="M3705 2740 c-8 -13 4 -32 16 -25 12 8 12 35 0 35 -6 0 -13 -4 -16
-10z"/>
<path d="M1205 2651 c-7 -12 12 -24 25 -16 11 7 4 25 -10 25 -5 0 -11 -4 -15
-9z"/>
<path d="M3740 2645 c0 -8 7 -15 15 -15 8 0 15 7 15 15 0 8 -7 15 -15 15 -8 0
-15 -7 -15 -15z"/>
<path d="M1175 2570 c-10 -17 12 -37 25 -24 8 8 6 15 -4 23 -10 9 -16 9 -21 1z"/>
<path d="M3772 2559 c2 -6 8 -10 13 -10 5 0 11 4 13 10 2 6 -4 11 -13 11 -9 0
-15 -5 -13 -11z"/>
<path d="M517 2483 c-12 -11 -8 -23 8 -23 8 0 15 7 15 15 0 16 -12 20 -23 8z"/>
<path d="M607 2483 c-12 -11 -8 -23 8 -23 8 0 15 7 15 15 0 16 -12 20 -23 8z"/>
<path d="M695 2481 c-7 -12 12 -24 25 -16 11 7 4 25 -10 25 -5 0 -11 -4 -15
-9z"/>
<path d="M787 2483 c-12 -11 -8 -23 8 -23 8 0 15 7 15 15 0 16 -12 20 -23 8z"/>
<path d="M877 2483 c-12 -11 -8 -23 8 -23 8 0 15 7 15 15 0 16 -12 20 -23 8z"/>
<path d="M965 2481 c-7 -12 12 -24 25 -16 11 7 4 25 -10 25 -5 0 -11 -4 -15
-9z"/>
<path d="M1055 2479 c-10 -15 1 -23 20 -15 9 3 13 10 10 16 -8 13 -22 13 -30
-1z"/>
<path d="M1147 2483 c-12 -11 -8 -23 8 -23 8 0 15 7 15 15 0 16 -12 20 -23 8z"/>
<path d="M3800 2475 c0 -8 7 -15 15 -15 8 0 15 7 15 15 0 8 -7 15 -15 15 -8 0
-15 -7 -15 -15z"/>
<path d="M3897 2483 c-12 -11 -8 -23 8 -23 8 0 15 7 15 15 0 16 -12 20 -23 8z"/>
<path d="M3985 2481 c-7 -12 12 -24 25 -16 11 7 4 25 -10 25 -5 0 -11 -4 -15
-9z"/>
<path d="M4080 2475 c0 -8 7 -15 15 -15 8 0 15 7 15 15 0 8 -7 15 -15 15 -8 0
-15 -7 -15 -15z"/>
<path d="M4177 2483 c-12 -11 -8 -23 8 -23 8 0 15 7 15 15 0 16 -12 20 -23 8z"/>
<path d="M4265 2480 c-3 -6 1 -13 10 -16 19 -8 30 0 20 15 -8 14 -22 14 -30 1z"/>
<path d="M4360 2476 c0 -9 7 -16 16 -16 17 0 14 22 -4 28 -7 2 -12 -3 -12 -12z"/>
<path d="M4440 2445 c0 -8 7 -15 15 -15 8 0 15 7 15 15 0 8 -7 15 -15 15 -8 0
-15 -7 -15 -15z"/>
<path d="M495 2401 c-7 -12 12 -24 25 -16 11 7 4 25 -10 25 -5 0 -11 -4 -15
-9z"/>
<path d="M4470 2366 c0 -9 7 -16 16 -16 9 0 14 5 12 12 -6 18 -28 21 -28 4z"/>
<path d="M495 2311 c-7 -12 12 -24 25 -16 11 7 4 25 -10 25 -5 0 -11 -4 -15
-9z"/>
<path d="M4470 2264 c0 -9 5 -14 12 -12 18 6 21 28 4 28 -9 0 -16 -7 -16 -16z"/>
<path d="M1871 2259 c-57 -11 -116 -50 -137 -91 -24 -46 -23 -121 2 -156 11
-15 58 -47 105 -72 62 -33 84 -50 84 -65 0 -34 -68 -32 -138 3 -32 16 -59 26
-61 23 -3 -3 -9 -35 -16 -70 -14 -76 -14 -75 82 -91 169 -29 288 40 288 166 0
69 -27 101 -130 152 -56 28 -75 42 -75 57 0 29 62 32 115 5 22 -11 45 -18 50
-15 8 5 30 91 30 120 0 27 -123 48 -199 34z"/>
<path d="M2295 2248 c-3 -7 -36 -117 -75 -245 -39 -128 -73 -239 -76 -248 -5
-13 6 -15 75 -15 l81 0 0 33 c0 53 9 58 86 55 l68 -3 9 -42 8 -43 80 0 c76 0
80 1 74 20 -10 31 -135 490 -135 496 0 2 -43 4 -95 4 -67 0 -97 -4 -100 -12z
m114 -200 c7 -35 15 -73 18 -85 5 -21 2 -23 -41 -23 -25 0 -46 3 -46 7 0 21
43 163 50 163 4 0 13 -28 19 -62z"/>
<path d="M2740 2243 c0 -24 -38 -418 -45 -465 l-5 -38 64 0 c63 0 64 0 70 31
3 17 6 61 7 98 0 36 4 89 8 116 7 47 8 48 18 25 6 -14 23 -69 38 -123 l28 -98
60 3 60 3 41 117 c23 65 44 118 47 118 7 0 19 -153 19 -237 l0 -53 70 0 70 0
-5 38 c-3 20 -12 132 -20 247 -9 116 -18 216 -20 223 -4 9 -27 12 -91 10 l-87
-3 -32 -123 c-31 -116 -40 -141 -49 -131 -2 2 -17 60 -33 129 l-29 125 -92 3
c-83 2 -92 1 -92 -15z"/>
<path d="M495 2221 c-7 -12 12 -24 25 -16 11 7 4 25 -10 25 -5 0 -11 -4 -15
-9z"/>
<path d="M4470 2175 c0 -8 7 -15 15 -15 8 0 15 7 15 15 0 8 -7 15 -15 15 -8 0
-15 -7 -15 -15z"/>
<path d="M495 2131 c-7 -12 12 -24 25 -16 11 7 4 25 -10 25 -5 0 -11 -4 -15
-9z"/>
<path d="M4472 2086 c1 -10 8 -17 13 -17 15 1 12 24 -3 29 -9 3 -13 -2 -10
-12z"/>
<path d="M495 2040 c-3 -6 1 -13 10 -16 19 -8 30 0 20 15 -8 14 -22 14 -30 1z"/>
<path d="M4470 1984 c0 -9 5 -14 12 -12 18 6 21 28 4 28 -9 0 -16 -7 -16 -16z"/>
<path d="M495 1951 c-7 -12 12 -24 25 -16 11 7 4 25 -10 25 -5 0 -11 -4 -15
-9z"/>
<path d="M4470 1895 c0 -8 7 -15 15 -15 8 0 15 7 15 15 0 8 -7 15 -15 15 -8 0
-15 -7 -15 -15z"/>
<path d="M495 1860 c-3 -6 1 -13 10 -16 19 -8 30 0 20 15 -8 14 -22 14 -30 1z"/>
<path d="M4475 1810 c-4 -6 -3 -16 3 -22 6 -6 12 -6 17 2 4 6 3 16 -3 22 -6 6
-12 6 -17 -2z"/>
<path d="M495 1770 c-3 -6 1 -13 10 -16 19 -8 30 0 20 15 -8 14 -22 14 -30 1z"/>
<path d="M4470 1704 c0 -9 5 -14 12 -12 18 6 21 28 4 28 -9 0 -16 -7 -16 -16z"/>
<path d="M495 1680 c-3 -6 1 -13 10 -16 19 -8 30 0 20 15 -8 14 -22 14 -30 1z"/>
<path d="M4470 1615 c0 -8 7 -15 15 -15 8 0 15 7 15 15 0 8 -7 15 -15 15 -8 0
-15 -7 -15 -15z"/>
<path d="M500 1580 c0 -13 5 -20 13 -17 6 2 12 10 12 17 0 7 -6 15 -12 18 -8
2 -13 -5 -13 -18z"/>
<path d="M555 1550 c-4 -6 -3 -16 3 -22 6 -6 12 -6 17 2 4 6 3 16 -3 22 -6 6
-12 6 -17 -2z"/>
<path d="M645 1550 c-4 -6 -3 -16 3 -22 6 -6 12 -6 17 2 4 6 3 16 -3 22 -6 6
-12 6 -17 -2z"/>
<path d="M735 1550 c-4 -6 -3 -16 3 -22 6 -6 12 -6 17 2 4 6 3 16 -3 22 -6 6
-12 6 -17 -2z"/>
<path d="M825 1550 c-4 -6 -3 -16 3 -22 6 -6 12 -6 17 2 4 6 3 16 -3 22 -6 6
-12 6 -17 -2z"/>
<path d="M915 1550 c-4 -6 -3 -16 3 -22 6 -6 12 -6 17 2 4 6 3 16 -3 22 -6 6
-12 6 -17 -2z"/>
<path d="M1005 1550 c-4 -6 -3 -16 3 -22 6 -6 12 -6 17 2 4 6 3 16 -3 22 -6 6
-12 6 -17 -2z"/>
<path d="M1095 1550 c-4 -6 -3 -16 3 -22 6 -6 12 -6 17 2 4 6 3 16 -3 22 -6 6
-12 6 -17 -2z"/>
<path d="M1185 1550 c-4 -6 -3 -16 3 -22 6 -6 12 -6 17 2 4 6 3 16 -3 22 -6 6
-12 6 -17 -2z"/>
<path d="M1277 1553 c-12 -11 -8 -23 8 -23 8 0 15 7 15 15 0 16 -12 20 -23 8z"/>
<path d="M3675 1550 c-7 -12 2 -30 16 -30 12 0 12 27 0 35 -5 3 -12 1 -16 -5z"/>
<path d="M4414 1549 c-8 -14 18 -31 30 -19 9 9 0 30 -14 30 -5 0 -12 -5 -16
-11z"/>
<path d="M3762 1538 c5 -15 28 -18 29 -3 0 6 -7 12 -17 13 -10 3 -15 -1 -12
-10z"/>
<path d="M3860 1534 c0 -9 5 -14 12 -12 18 6 21 28 4 28 -9 0 -16 -7 -16 -16z"/>
<path d="M3952 1538 c6 -18 28 -21 28 -4 0 9 -7 16 -16 16 -9 0 -14 -5 -12
-12z"/>
<path d="M4042 1538 c5 -15 28 -18 29 -3 0 6 -7 12 -17 13 -10 3 -15 -1 -12
-10z"/>
<path d="M4140 1534 c0 -9 5 -14 12 -12 18 6 21 28 4 28 -9 0 -16 -7 -16 -16z"/>
<path d="M4232 1538 c6 -18 28 -21 28 -4 0 9 -7 16 -16 16 -9 0 -14 -5 -12
-12z"/>
<path d="M4325 1541 c-7 -12 12 -24 25 -16 11 7 4 25 -10 25 -5 0 -11 -4 -15
-9z"/>
<path d="M1936 1523 c-2 -10 -7 -56 -11 -103 -3 -47 -8 -97 -11 -112 -5 -26
-3 -28 30 -28 l36 0 0 70 c0 39 4 70 8 70 5 0 15 -25 22 -55 13 -53 14 -55 46
-55 31 0 34 3 50 55 10 30 21 52 26 49 4 -3 8 -34 8 -70 l0 -64 36 0 c35 0 36
1 31 33 -3 17 -9 76 -13 130 l-6 97 -43 0 -44 0 -15 -54 c-9 -30 -16 -59 -16
-66 0 -31 -19 6 -30 60 l-13 60 -43 0 c-32 0 -44 -4 -48 -17z"/>
<path d="M2262 1429 c3 -102 5 -112 27 -130 16 -13 39 -19 78 -19 47 0 59 4
84 29 28 29 29 32 29 130 l0 101 -41 0 -42 0 7 -84 c7 -97 2 -116 -29 -116
-39 0 -46 20 -39 114 l7 86 -42 0 -43 0 4 -111z"/>
<path d="M2559 1511 c-50 -51 -33 -102 46 -135 19 -8 35 -20 35 -26 0 -19 -27
-22 -65 -6 -21 9 -39 16 -40 16 -2 0 -5 -15 -7 -34 -4 -40 6 -46 82 -46 113 0
143 100 46 154 -50 28 -60 51 -20 44 16 -3 36 -8 45 -12 13 -5 18 0 23 25 8
41 -3 49 -67 49 -40 0 -53 -5 -78 -29z"/>
<path d="M2770 1410 l0 -130 38 0 37 0 1 130 1 130 -38 0 -39 0 0 -130z"/>
<path d="M2954 1521 c-41 -25 -58 -69 -52 -133 4 -42 11 -57 37 -80 26 -23 40
-28 86 -28 48 0 55 3 55 19 0 11 3 26 6 34 4 13 -2 14 -34 10 -33 -4 -42 -2
-56 18 -21 30 -21 83 1 104 11 12 26 15 50 12 29 -5 34 -3 39 18 3 13 3 29 -1
34 -11 18 -97 13 -131 -8z"/>
<path d="M1332 1466 c1 -10 8 -17 13 -17 15 1 12 24 -3 29 -9 3 -13 -2 -10
-12z"/>
<path d="M3625 1470 c-8 -13 4 -32 16 -25 12 8 12 35 0 35 -6 0 -13 -4 -16
-10z"/>
<path d="M1380 1385 c0 -8 7 -15 15 -15 8 0 15 7 15 15 0 8 -7 15 -15 15 -8 0
-15 -7 -15 -15z"/>
<path d="M3570 1385 c0 -8 7 -15 15 -15 8 0 15 7 15 15 0 8 -7 15 -15 15 -8 0
-15 -7 -15 -15z"/>
<path d="M1435 1321 c-7 -12 12 -24 25 -16 11 7 4 25 -10 25 -5 0 -11 -4 -15
-9z"/>
<path d="M3520 1316 c0 -9 7 -16 16 -16 17 0 14 22 -4 28 -7 2 -12 -3 -12 -12z"/>
<path d="M1495 1251 c-7 -12 12 -24 25 -16 11 7 4 25 -10 25 -5 0 -11 -4 -15
-9z"/>
<path d="M3460 1245 c0 -9 5 -15 11 -13 6 2 11 8 11 13 0 5 -5 11 -11 13 -6 2
-11 -4 -11 -13z"/>
<path d="M1560 1186 c0 -9 7 -16 16 -16 17 0 14 22 -4 28 -7 2 -12 -3 -12 -12z"/>
<path d="M3395 1190 c-4 -6 -3 -16 3 -22 6 -6 12 -6 17 2 4 6 3 16 -3 22 -6 6
-12 6 -17 -2z"/>
<path d="M1625 1131 c-7 -12 12 -24 25 -16 11 7 4 25 -10 25 -5 0 -11 -4 -15
-9z"/>
<path d="M3320 1126 c0 -9 7 -16 16 -16 17 0 14 22 -4 28 -7 2 -12 -3 -12 -12z"/>
<path d="M1790 1105 c0 -8 7 -15 15 -15 8 0 15 7 15 15 0 8 -7 15 -15 15 -8 0
-15 -7 -15 -15z"/>
<path d="M1870 1105 c0 -8 7 -15 15 -15 8 0 15 7 15 15 0 8 -7 15 -15 15 -8 0
-15 -7 -15 -15z"/>
<path d="M1950 1105 c0 -8 7 -15 15 -15 8 0 15 7 15 15 0 8 -7 15 -15 15 -8 0
-15 -7 -15 -15z"/>
<path d="M2030 1105 c0 -8 7 -15 15 -15 8 0 15 7 15 15 0 8 -7 15 -15 15 -8 0
-15 -7 -15 -15z"/>
<path d="M2110 1105 c0 -8 7 -15 15 -15 8 0 15 7 15 15 0 8 -7 15 -15 15 -8 0
-15 -7 -15 -15z"/>
<path d="M2190 1105 c0 -8 7 -15 15 -15 8 0 15 7 15 15 0 8 -7 15 -15 15 -8 0
-15 -7 -15 -15z"/>
<path d="M2270 1105 c0 -8 7 -15 15 -15 8 0 15 7 15 15 0 8 -7 15 -15 15 -8 0
-15 -7 -15 -15z"/>
<path d="M2350 1105 c0 -8 7 -15 15 -15 8 0 15 7 15 15 0 8 -7 15 -15 15 -8 0
-15 -7 -15 -15z"/>
<path d="M2430 1105 c0 -8 7 -15 15 -15 8 0 15 7 15 15 0 8 -7 15 -15 15 -8 0
-15 -7 -15 -15z"/>
<path d="M2510 1105 c0 -8 7 -15 15 -15 8 0 15 7 15 15 0 8 -7 15 -15 15 -8 0
-15 -7 -15 -15z"/>
<path d="M2590 1105 c0 -8 7 -15 15 -15 8 0 15 7 15 15 0 8 -7 15 -15 15 -8 0
-15 -7 -15 -15z"/>
<path d="M2670 1105 c0 -8 7 -15 15 -15 8 0 15 7 15 15 0 8 -7 15 -15 15 -8 0
-15 -7 -15 -15z"/>
<path d="M2750 1105 c0 -8 7 -15 15 -15 8 0 15 7 15 15 0 8 -7 15 -15 15 -8 0
-15 -7 -15 -15z"/>
<path d="M2830 1105 c0 -8 7 -15 15 -15 8 0 15 7 15 15 0 8 -7 15 -15 15 -8 0
-15 -7 -15 -15z"/>
<path d="M2910 1105 c0 -8 7 -15 15 -15 8 0 15 7 15 15 0 8 -7 15 -15 15 -8 0
-15 -7 -15 -15z"/>
<path d="M2990 1105 c0 -8 7 -15 15 -15 8 0 15 7 15 15 0 8 -7 15 -15 15 -8 0
-15 -7 -15 -15z"/>
<path d="M3070 1105 c0 -8 7 -15 15 -15 8 0 15 7 15 15 0 8 -7 15 -15 15 -8 0
-15 -7 -15 -15z"/>
<path d="M3150 1105 c0 -8 7 -15 15 -15 8 0 15 7 15 15 0 8 -7 15 -15 15 -8 0
-15 -7 -15 -15z"/>
<path d="M1700 1064 c0 -17 22 -14 28 4 2 7 -3 12 -12 12 -9 0 -16 -7 -16 -16z"/>
<path d="M3245 1071 c-7 -12 12 -24 25 -16 11 7 4 25 -10 25 -5 0 -11 -4 -15
-9z"/>
<path d="M1780 1014 c0 -17 22 -14 28 4 2 7 -3 12 -12 12 -9 0 -16 -7 -16 -16z"/>
<path d="M3170 1014 c0 -9 5 -14 12 -12 18 6 21 28 4 28 -9 0 -16 -7 -16 -16z"/>
<path d="M1855 981 c-7 -12 12 -24 25 -16 11 7 4 25 -10 25 -5 0 -11 -4 -15
-9z"/>
<path d="M3090 976 c0 -9 7 -16 16 -16 17 0 14 22 -4 28 -7 2 -12 -3 -12 -12z"/>
<path d="M1940 934 c0 -17 22 -14 28 4 2 7 -3 12 -12 12 -9 0 -16 -7 -16 -16z"/>
<path d="M3010 935 c0 -9 5 -15 11 -13 6 2 11 8 11 13 0 5 -5 11 -11 13 -6 2
-11 -4 -11 -13z"/>
<path d="M2027 913 c-12 -11 -8 -23 8 -23 8 0 15 7 15 15 0 16 -12 20 -23 8z"/>
<path d="M2927 913 c-12 -11 -8 -23 8 -23 8 0 15 7 15 15 0 16 -12 20 -23 8z"/>
<path d="M2110 875 c0 -8 7 -15 15 -15 8 0 15 7 15 15 0 8 -7 15 -15 15 -8 0
-15 -7 -15 -15z"/>
<path d="M2830 875 c0 -8 7 -15 15 -15 8 0 15 7 15 15 0 8 -7 15 -15 15 -8 0
-15 -7 -15 -15z"/>
<path d="M2202 854 c4 -21 22 -23 26 -1 2 10 -3 17 -13 17 -10 0 -15 -6 -13
-16z"/>
<path d="M2745 859 c-10 -15 1 -23 20 -15 9 3 13 10 10 16 -8 13 -22 13 -30
-1z"/>
<path d="M2290 835 c0 -8 7 -15 15 -15 8 0 15 7 15 15 0 8 -7 15 -15 15 -8 0
-15 -7 -15 -15z"/>
<path d="M2655 841 c-7 -12 12 -24 25 -16 11 7 4 25 -10 25 -5 0 -11 -4 -15
-9z"/>
<path d="M2382 828 c6 -18 28 -21 28 -4 0 9 -7 16 -16 16 -9 0 -14 -5 -12 -12z"/>
<path d="M2472 828 c6 -18 28 -21 28 -4 0 9 -7 16 -16 16 -9 0 -14 -5 -12 -12z"/>
<path d="M2562 828 c6 -18 28 -21 28 -4 0 9 -7 16 -16 16 -9 0 -14 -5 -12 -12z"/>
</g>
</svg>
